<svg id="visual" viewBox="0 0 900 600" width="900" height="600" xmlns="http://www.w3.org/2000/svg" xmlns:xlink="http://www.w3.org/1999/xlink" version="1.1"><rect x="0" y="0" width="900" height="600" fill="#000"></rect><path d="M0 408L11.5 400.7C23 393.3 46 378.7 69 379C92 379.3 115 394.7 138.2 394.5C161.3 394.3 184.7 378.7 207.8 368.3C231 358 254 353 277 356.7C300 360.3 323 372.7 346 388.5C369 404.3 392 423.7 415.2 423.5C438.3 423.3 461.7 403.7 484.8 393.2C508 382.7 531 381.3 554 390.3C577 399.3 600 418.7 623 424.7C646 430.7 669 423.3 692.2 409.5C715.3 395.7 738.7 375.3 761.8 368.7C785 362 808 369 831 369.5C854 370 877 364 888.5 361L900 358L900 601L888.5 601C877 601 854 601 831 601C808 601 785 601 761.8 601C738.7 601 715.3 601 692.2 601C669 601 646 601 623 601C600 601 577 601 554 601C531 601 508 601 484.8 601C461.7 601 438.3 601 415.2 601C392 601 369 601 346 601C323 601 300 601 277 601C254 601 231 601 207.8 601C184.7 601 161.3 601 138.2 601C115 601 92 601 69 601C46 601 23 601 11.5 601L0 601Z" fill="#fa7268"></path><path d="M0 413L11.5 412C23 411 46 409 69 407.3C92 405.7 115 404.3 138.2 408.8C161.3 413.3 184.7 423.7 207.8 436.7C231 449.7 254 465.3 277 466.8C300 468.3 323 455.7 346 450.2C369 444.7 392 446.3 415.2 449.3C438.3 452.3 461.7 456.7 484.8 461.3C508 466 531 471 554 473.8C577 476.7 600 477.3 623 465.7C646 454 669 430 692.2 419.5C715.3 409 738.7 412 761.8 415.8C785 419.7 808 424.3 831 434.7C854 445 877 461 888.5 469L900 477L900 601L888.5 601C877 601 854 601 831 601C808 601 785 601 761.8 601C738.7 601 715.3 601 692.2 601C669 601 646 601 623 601C600 601 577 601 554 601C531 601 508 601 484.8 601C461.7 601 438.3 601 415.2 601C392 601 369 601 346 601C323 601 300 601 277 601C254 601 231 601 207.8 601C184.7 601 161.3 601 138.2 601C115 601 92 601 69 601C46 601 23 601 11.5 601L0 601Z" fill="#eb5967"></path><path d="M0 493L11.5 490.7C23 488.3 46 483.7 69 484C92 484.3 115 489.7 138.2 488.8C161.3 488 184.7 481 207.8 481.8C231 482.7 254 491.3 277 491.8C300 492.3 323 484.7 346 488C369 491.3 392 505.7 415.2 505.8C438.3 506 461.7 492 484.8 482.7C508 473.3 531 468.7 554 472.2C577 475.7 600 487.3 623 497.2C646 507 669 515 692.2 510.8C715.3 506.7 738.7 490.3 761.8 484.2C785 478 808 482 831 479C854 476 877 466 888.5 461L900 456L900 601L888.5 601C877 601 854 601 831 601C808 601 785 601 761.8 601C738.7 601 715.3 601 692.2 601C669 601 646 601 623 601C600 601 577 601 554 601C531 601 508 601 484.8 601C461.7 601 438.3 601 415.2 601C392 601 369 601 346 601C323 601 300 601 277 601C254 601 231 601 207.8 601C184.7 601 161.3 601 138.2 601C115 601 92 601 69 601C46 601 23 601 11.5 601L0 601Z" fill="#da3f67"></path><path d="M0 552L11.5 550.5C23 549 46 546 69 538.8C92 531.7 115 520.3 138.2 517.3C161.3 514.3 184.7 519.7 207.8 526.8C231 534 254 543 277 548C300 553 323 554 346 554.3C369 554.7 392 554.3 415.2 551.3C438.3 548.3 461.7 542.7 484.8 537.2C508 531.7 531 526.3 554 528C577 529.7 600 538.3 623 538.7C646 539 669 531 692.2 525.5C715.3 520 738.7 517 761.8 515.7C785 514.3 808 514.7 831 519.7C854 524.7 877 534.3 888.5 539.2L900 544L900 601L888.5 601C877 601 854 601 831 601C808 601 785 601 761.8 601C738.7 601 715.3 601 692.2 601C669 601 646 601 623 601C600 601 577 601 554 601C531 601 508 601 484.8 601C461.7 601 438.3 601 415.2 601C392 601 369 601 346 601C323 601 300 601 277 601C254 601 231 601 207.8 601C184.7 601 161.3 601 138.2 601C115 601 92 601 69 601C46 601 23 601 11.5 601L0 601Z" fill="#c62368"></path></svg>