<svg id="visual" viewBox="0 0 960 540" width="1900" height="600" xmlns="http://www.w3.org/2000/svg" xmlns:xlink="http://www.w3.org/1999/xlink" version="1.1"><path d="M0 378L12.5 374.5C25 371 50 364 75 365.5C100 367 125 377 150 378.8C175 380.7 200 374.3 225 382C250 389.7 275 411.3 300 418.3C325 425.3 350 417.7 375 408C400 398.3 425 386.7 450 378.2C475 369.7 500 364.3 525 373.3C550 382.3 575 405.7 600 407C625 408.3 650 387.7 675 378.8C700 370 725 373 750 385C775 397 800 418 825 425C850 432 875 425 887.5 421.5L900 418L900 601L887.5 601C875 601 850 601 825 601C800 601 775 601 750 601C725 601 700 601 675 601C650 601 625 601 600 601C575 601 550 601 525 601C500 601 475 601 450 601C425 601 400 601 375 601C350 601 325 601 300 601C275 601 250 601 225 601C200 601 175 601 150 601C125 601 100 601 75 601C50 601 25 601 12.5 601L0 601Z" fill="#fa7268"></path><path d="M0 436L12.5 443.8C25 451.7 50 467.3 75 470.8C100 474.3 125 465.7 150 452.3C175 439 200 421 225 416.2C250 411.3 275 419.7 300 432.3C325 445 350 462 375 462.3C400 462.7 425 446.3 450 435.8C475 425.3 500 420.7 525 424.8C550 429 575 442 600 447.3C625 452.7 650 450.3 675 445.8C700 441.3 725 434.7 750 427.3C775 420 800 412 825 417.5C850 423 875 442 887.5 451.5L900 461L900 601L887.5 601C875 601 850 601 825 601C800 601 775 601 750 601C725 601 700 601 675 601C650 601 625 601 600 601C575 601 550 601 525 601C500 601 475 601 450 601C425 601 400 601 375 601C350 601 325 601 300 601C275 601 250 601 225 601C200 601 175 601 150 601C125 601 100 601 75 601C50 601 25 601 12.5 601L0 601Z" fill="#eb5967"></path><path d="M0 499L12.5 498.8C25 498.7 50 498.3 75 492.2C100 486 125 474 150 473.5C175 473 200 484 225 492.5C250 501 275 507 300 501.7C325 496.3 350 479.7 375 476.8C400 474 425 485 450 490C475 495 500 494 525 491C550 488 575 483 600 483.2C625 483.3 650 488.7 675 496.7C700 504.7 725 515.3 750 520C775 524.7 800 523.3 825 519.5C850 515.7 875 509.3 887.5 506.2L900 503L900 601L887.5 601C875 601 850 601 825 601C800 601 775 601 750 601C725 601 700 601 675 601C650 601 625 601 600 601C575 601 550 601 525 601C500 601 475 601 450 601C425 601 400 601 375 601C350 601 325 601 300 601C275 601 250 601 225 601C200 601 175 601 150 601C125 601 100 601 75 601C50 601 25 601 12.5 601L0 601Z" fill="#da3f67"></path><path d="M0 548L12.5 547.2C25 546.3 50 544.7 75 547.7C100 550.7 125 558.3 150 554.3C175 550.3 200 534.7 225 527C250 519.3 275 519.7 300 523.2C325 526.7 350 533.3 375 538.7C400 544 425 548 450 543.7C475 539.3 500 526.7 525 525.8C550 525 575 536 600 537.2C625 538.3 650 529.7 675 527.8C700 526 725 531 750 533.2C775 535.3 800 534.7 825 533.5C850 532.3 875 530.7 887.5 529.8L900 529L900 601L887.5 601C875 601 850 601 825 601C800 601 775 601 750 601C725 601 700 601 675 601C650 601 625 601 600 601C575 601 550 601 525 601C500 601 475 601 450 601C425 601 400 601 375 601C350 601 325 601 300 601C275 601 250 601 225 601C200 601 175 601 150 601C125 601 100 601 75 601C50 601 25 601 12.5 601L0 601Z" fill="#c62368"></path></svg>